. 
 
http://www.torrenting.com          :     Once & For all ;)


               www . Torrenting . Com 

(((((((((((((= Enjoy No RAR releases =))))))))))))))))))))


...................................NFO:....................................

.








































          
          
              
              
                    
                    
                    
                    

Intruder.1989.DC.BDRiP.XviD.AC3-SiC

Poster:
[IMG]http://img560.imageshack.us/img560/8853/intruder2754904971.jpg[/IMG]

IMDB Link:
http://www.imdb.com/title/tt0095379/

Description:
The overnight stock crew of a local supermarket find themselves being stalked and slashed by a mysterious maniac. 

Media Info
General
Complete name                    : Intruder.1989.DC.BDRiP.XviD.AC3-SiC.avi
Format                           : AVI
Format/Info                      : Audio Video Interleave
File size                        : 1.37 GiB
Duration                         : 1h 27mn
Overall bit rate                 : 2 235 Kbps

Video
ID                               : 0
Format                           : MPEG-4 Visual
Format profile                   : Advanced Simple@L5
Format settings, BVOP            : 2
Format settings, QPel            : No
Format settings, GMC             : No warppoints
Format settings, Matrix          : Default (H.263)
Muxing mode                      : Packed bitstream
Codec ID                         : XVID
Codec ID/Hint                    : XviD
Duration                         : 1h 27mn
Bit rate                         : 1 907 Kbps
Width                            : 720 pixels
Height                           : 400 pixels
Display aspect ratio             : 16:9
Frame rate                       : 23.976 fps
Color space                      : YUV
Chroma subsampling               : 4:2:0
Bit depth                        : 8 bits
Scan type                        : Progressive
Compression mode                 : Lossy
Bits/(Pixel*Frame)               : 0.276
Stream size                      : 1.17 GiB (85%)
Writing library                  : XviD 1.1.2 (UTC 2006-11-01)

Audio
ID                               : 1
Format                           : AC-3
Format/Info                      : Audio Coding 3
Mode extension                   : CM (complete main)
Codec ID                         : 2000
Duration                         : 1h 27mn
Bit rate mode                    : Constant
Bit rate                         : 320 Kbps
Channel(s)                       : 2 channels
Channel positions                : Front: L R
Sampling rate                    : 48.0 KHz
Bit depth                        : 16 bits
Compression mode                 : Lossy
Stream size                      : 200 MiB (14%)
Alignment                        : Aligned on interleaves
Interleave, duration             : 64 ms (1.53 video frames)
Interleave, preload duration     : 192 ms
Title                            : intruder

Screenshots:
[IMG]http://img266.imageshack.us/img266/6675/scrncp00002.png[/IMG]
[IMG]http://img802.imageshack.us/img802/6869/scrncp00008.png[/IMG]
[IMG]http://img31.imageshack.us/img31/865/scrncp00010.png[/IMG]
[IMG]http://img843.imageshack.us/img843/5965/scrncp00013.png[/IMG]
[IMG]http://img191.imageshack.us/img191/6585/scrncp00020.png[/IMG]

Note : One of the best in regards to 80s slasher flicks. Previous sources were for the most part a pretty mediocre fullscreen DVD. Now, enjoy it in all its widescreen glory!

P.S.: Sorry about the incorrect year tagging on the 1080p. Year should be 1989 not 1988

Source: Intruder.1988.DirCut.BD-R.BaggerInc (THANKS!)

Enjoy!

Respects to T00NG0D, ELEKTRI4KA, PA, YeFsTe, MrRep and everyone in the struggle...